<?xml version="1.0" encoding="utf-8"?>
<!-- Generator: Adobe Illustrator 19.2.1, SVG Export Plug-In . SVG Version: 6.00 Build 0)  -->
<svg version="1.1" id="Layer_1" xmlns="http://www.w3.org/2000/svg" xmlns:xlink="http://www.w3.org/1999/xlink" x="0px" y="0px"
	 viewBox="0 0 1920 200" style="enable-background:new 0 0 1920 200;" xml:space="preserve">
<style type="text/css">
	.st0{fill:#278289;}
	.st1{fill:#1F767C;}
	.st2{fill:#1B7076;}
	.st3{fill:#1E6C71;}
	.st4{fill:#1F676C;}
	.st5{fill:#175C60;}
	.st6{fill:#186C71;}
	.st7{fill:#126368;}
	.st8{fill:#156166;}
	.st9{fill:#0C585C;}
	.st10{fill:#0F5055;}
	.st11{fill:#14696F;}
	.st12{fill:#145B5F;}
	.st13{fill:#0D6267;}
	.st14{fill:#0C595D;}
	.st15{fill:#187075;}
	.st16{fill:#176368;}
	.st17{fill:#0B656C;}
	.st18{fill:#0A666C;}
	.st19{fill:#106C73;}
	.st20{fill:#0D5C61;}
	.st21{fill:#13747A;}
	.st22{fill:#0C6C72;}
	.st23{fill:#0C6970;}
	.st24{fill:#0E6A70;}
	.st25{fill:#107279;}
	.st26{fill:#13737A;}
	.st27{fill:#18787E;}
	.st28{fill:#1F7F85;}
	.st29{fill:#17686E;}
	.st30{fill:#267E84;}
	.st31{fill:#23777C;}
	.st32{fill:#218187;}
	.st33{fill:#1A7177;}
	.st34{fill:#1C787E;}
	.st35{fill:#1D7A80;}
</style>
<g>
	<polygon class="st0" points="1920,0 1903,0 1920,13.1 	"/>
	<polygon class="st1" points="1920,56.7 1920,13.1 1903,0 1618.3,0 1615,8 	"/>
	<polygon class="st2" points="1669,194 1920,95.8 1920,56.7 1615,8 	"/>
	<polygon class="st3" points="1676.5,200 1920,200 1920,95.8 1669,194 	"/>
	<polygon class="st4" points="1668.6,200 1676.5,200 1669,194 	"/>
	<polygon class="st5" points="1662.7,200 1668.6,200 1669,194 	"/>
	<polygon class="st6" points="1618.3,0 1560.9,0 1615,8 	"/>
	<polygon class="st7" points="1585.9,200 1615,8 1560.9,0 1453.1,0 1537.3,200 	"/>
	<polygon class="st8" points="1615,8 1585.9,200 1662.7,200 1669,194 	"/>
	<polygon class="st9" points="1301.6,200 1537.3,200 1453.1,0 1424.6,0 1209,171 	"/>
	<polygon class="st10" points="1234.4,200 1301.6,200 1209,171 	"/>
	<polygon class="st11" points="1249,0 1191.6,0 1191,5 	"/>
	<polygon class="st12" points="1212.9,200 1234.4,200 1209,171 	"/>
	<polygon class="st13" points="1209,171 1424.6,0 1249,0 1191,5 	"/>
	<polygon class="st14" points="958,121 977.7,200 1194.5,200 1209,171 	"/>
	<polygon class="st15" points="1191.6,0 1187.9,0 1191,5 	"/>
	<polygon class="st16" points="1194.5,200 1212.9,200 1209,171 	"/>
	<polygon class="st17" points="1191,5 984,43 1209,171 	"/>
	<polygon class="st18" points="1209,171 984,43 958,121 	"/>
	<polygon class="st19" points="1191,5 1187.9,0 998.6,0 984,43 	"/>
	<polygon class="st20" points="800.9,200 977.7,200 958,121 	"/>
	<polygon class="st21" points="998.6,0 874.9,0 984,43 	"/>
	<polygon class="st22" points="984,43 647,67 958,121 	"/>
	<polygon class="st23" points="647,67 780,200 800.9,200 958,121 	"/>
	<polygon class="st24" points="453.5,200 780,200 647,67 	"/>
	<polygon class="st25" points="453.5,200 647,67 984,43 874.9,0 512.9,0 431.5,200 	"/>
	<polygon class="st26" points="353.5,200 431.5,200 512.9,0 431.6,0 251,169 	"/>
	<polygon class="st27" points="251,169 431.6,0 194,0 137,19 	"/>
	<polygon class="st28" points="194,0 140.9,0 137,19 	"/>
	<polygon class="st29" points="269.9,200 353.5,200 251,169 	"/>
	<polygon class="st30" points="245.1,200 269.9,200 251,169 	"/>
	<polygon class="st31" points="251,169 202.4,200 245.1,200 	"/>
	<polygon class="st32" points="140.9,0 96.5,0 137,19 	"/>
	<polygon class="st33" points="137,19 65.3,200 202.4,200 251,169 	"/>
	<polygon class="st34" points="96.5,0 37.4,0 25.8,200 65.3,200 137,19 	"/>
	<polygon class="st35" points="0,0 0,200 25.8,200 37.4,0 	"/>
</g>
</svg>
