<?xml version="1.0" encoding="utf-8"?>
<!-- Generator: Adobe Illustrator 19.2.1, SVG Export Plug-In . SVG Version: 6.00 Build 0)  -->
<svg version="1.1" id="Layer_1" xmlns="http://www.w3.org/2000/svg" xmlns:xlink="http://www.w3.org/1999/xlink" x="0px" y="0px"
	 viewBox="0 0 1436 290.3" style="enable-background:new 0 0 1436 290.3;" xml:space="preserve">
<style type="text/css">
	.st0{fill:#FFFFFF;}
</style>
<path class="st0" d="M668.5,116.1l-8.2,10.5c-7.6-7.2-17.7-11.6-29.8-11.6c-20.7,0-35.5,15-35.5,36.9c0,21.8,14.8,37.1,35.5,37.1
	c13.1,0,23.9-4.6,31-12.9l8.5,9.1c-8.9,10.8-22.8,17.3-40.1,17.3c-29.1,0-49.6-20.7-49.6-50.5c0-29.8,20.7-50.5,49.6-50.5
	C646,101.1,659.3,106.6,668.5,116.1z"/>
<path class="st0" d="M773.7,140.1v61.8h-14.8V144c0-17.7-10.6-28.1-28.3-28.1c-21.3,0.2-33.8,15.2-33.8,36.7v49.2h-14.8v-141h14.8
	v63.3c6.8-15.6,20.5-22.8,39-23C759.6,101.1,773.7,115.9,773.7,140.1z"/>
<path class="st0" d="M858.8,186.4c-8,10.8-20.7,16.2-36.7,16.2c-20.7,0-34-13.3-34-30.6c0-17.5,13.9-28.5,37.4-28.7h32.9v-5.9
	c0-14.6-9.1-23.4-26.8-23.4c-11,0-21.3,4.2-31.7,11.4l-6.3-10.8c12.9-8.6,23.8-13.5,40.9-13.5c24.7,0,38.4,13.1,38.6,34.6l0.2,66.1
	h-14.4V186.4z M858.7,167.2v-12h-31.2c-16.7,0-25.5,5.1-25.5,16.2c0,11,8.9,18.2,23,18.2C841.9,189.6,854.9,181.1,858.7,167.2z"/>
<path class="st0" d="M979.9,140.1v61.8h-14.8V144c0-17.7-10.6-28.1-28.3-28.1c-19.8,0.2-31.9,13.1-33.6,32.1v53.8h-14.8V101.7h14.8
	v22c7-15.2,20.5-22.4,38.8-22.6C965.9,101.1,979.9,115.9,979.9,140.1z"/>
<path class="st0" d="M1090.2,191.4c0,29.3-20,47.7-50.4,47.7c-15.8-0.2-28.9-5.3-41-14.4l6.8-11.4c9.9,8.2,20.3,12.5,33.6,12.7
	c21.9,0,36.1-13.3,36.1-34.2v-15.2c-7,13.3-20,20.9-36.9,20.9c-27,0-45.6-19.9-45.6-48.4c0-27.9,18.4-47.7,45.2-47.9
	c17.1,0,30,7.6,37.2,20.9v-20.3h14.8V191.4z M1075.4,149.6c0-20.9-14.3-35.5-34.2-35.5c-20.1,0-34.2,14.8-34.4,35.5
	c0.2,20.5,14.3,35.3,34.4,35.3C1061.1,184.9,1075.4,170.1,1075.4,149.6z"/>
<path class="st0" d="M1200.1,157.5h-81.7c2.7,19.6,16.9,31.9,36.3,31.9c12.4,0,23.2-4.4,31-12.5l8.2,8.7
	c-9.5,10.6-23.6,16.7-40.3,16.7c-29.5,0-49.8-20.7-49.8-50.5c0-29.8,20.5-50.5,49.6-50.5C1185.6,101.1,1201.6,123.5,1200.1,157.5z
	 M1186.8,145.4c-0.9-19.2-13.9-31.4-33.4-31.4c-19,0-32.7,12.3-35,31.4H1186.8z"/>
<polygon class="st0" points="576.2,101 563.3,101 540.1,134 547,143.6 "/>
<polygon class="st0" points="540.4,166.3 564.8,201 580,201 547.7,155.6 540.4,166.3 "/>
<polygon class="st0" points="511.1,130.7 511.1,130.6 490.7,101.5 473.6,101.5 507.7,150 481.2,187.4 398.9,187.4 398.9,141.8 
	465.9,141.8 465.9,127.1 398.9,127.1 398.9,83.4 473.9,83.4 473.9,68.8 383.7,68.8 383.7,201.5 471.2,201.5 471.2,201.5 
	487.9,201.5 497.2,188.8 524.3,149.5 "/>
<path class="st0" d="M1219,200.5v-133h57.8c28,0,44.7,12.4,44.7,33.3c0,10-4,18.6-11.3,24.1l-7.2,5.5l7.9,4.5
	c10.2,5.8,15.8,16.2,15.8,29.2c0,22.8-18.1,36.5-48.5,36.5H1219z M1241.4,180.5h34.2c8.4,0,27.9-1.9,27.9-19.4
	c0-11.8-10.4-18.8-27.9-18.8h-34.2V180.5z M1241.4,122.6h34.2c21.2,0,22.8-13.7,22.8-17.9c0-5.2-2.2-17.3-22.8-17.3h-34.2V122.6z"/>
<path class="st0" d="M1337.3,200.5V99.4h21.7v101.1H1337.3z M1348.1,83.6c-7.4,0-12.7-5.5-12.7-13.1c0-7.7,5.4-13.3,12.7-13.3
	c7.4,0,12.7,5.6,12.7,13.3C1360.9,78.1,1355.5,83.6,1348.1,83.6z"/>
<path class="st0" d="M1411.1,201.4c-17.5,0-28.3-11.3-28.3-29.4v-52.4h-14.3v-16.3h14.3V75.5h21.7v27.7h29.8v16.3h-29.8V168
	c0,6.8,1.3,13.7,10.8,13.7c4.3,0,9-1.3,15.2-4.4l5.5,16.7C1427.7,198.9,1419.3,201.4,1411.1,201.4z"/>
<path class="st0" d="M150.5,290.3c-31.1,0-60.6-9.9-85.3-28.8c-23.8-18.1-41.5-43.7-50-72.2l-0.3-1.1L128.5,74.6
	c1.2-1.2,1.9-2.9,1.9-4.7c0-1.7-0.7-3.4-1.9-4.6l-10-9.9H194l0,75.4l-13.1-13.1l-0.5-0.4l-0.3-0.2l-0.1-0.1l-0.2-0.1l-0.5-0.3
	l-0.6-0.3c0,0-0.4-0.1-0.5-0.2c-0.1,0-0.2-0.1-0.3-0.1l-0.3-0.1l-0.6-0.1l-0.7,0l-0.6,0l-0.6,0.1l-0.1,0c-0.5,0.1-1,0.3-1.5,0.5
	l-0.2,0.1c-0.1,0-0.6,0.4-0.6,0.4l-0.1,0.1c-0.1,0.1-0.2,0.2-0.3,0.2l-0.2,0.2c-0.1,0.1-0.2,0.2-0.3,0.3l-49.8,48.6l-19.7-19.6
	c-1.2-1.2-2.9-1.9-4.6-1.9c-0.9,0-1.7,0.2-2.5,0.5c-2.5,1-4,3.4-4,6.1v98.3c0,3.6,2.9,6.6,6.6,6.6h98.1c2.7,0,5-1.6,6.1-4
	c1-2.5,0.5-5.3-1.4-7.1l-16.6-16.8l103.5-103.5l2.5,0.8l0.2,1.2c1.2,7.4,1.8,15,1.8,22.5C291.7,227,228.4,290.3,150.5,290.3z
	 M104.2,243v-76l13.2,13.2c1.2,1.2,2.9,1.9,4.6,1.9c1.7,0,3.4-0.7,4.6-1.9l49.6-48.7l19.7,19.8c1.2,1.2,2.9,1.9,4.7,1.9
	c0.9,0,1.7-0.2,2.5-0.5c2.5-1,4.1-3.4,4.1-6.1l0-97.9c0-3.6-2.9-6.6-6.6-6.6h-97.9c-2.7,0-5,1.6-6.1,4.1c-1,2.5-0.5,5.3,1.4,7.2
	L114.6,70L13.4,171.1l-2.5-0.8l-0.2-1.2c-0.9-6.6-1.4-13.3-1.4-19.9C9.3,111.5,24,76,50.7,49.3c26.7-26.7,62.1-41.4,99.8-41.4
	c30.7,0,59.8,9.7,84.4,28.1c23.6,17.6,41.4,42.7,50.3,70.6l0.4,1.2L169.8,223.5c-2.5,2.5-2.6,6.7,0,9.3L180,243H104.2z"/>
</svg>
